# xmcd CD database file
#
# Track frame offsets:
#	150
#	28663
#	47463
#	69843
#	90656
#	115518
#	131654
#	149588
#	159551
#	171898
#	187867
#	197579
#	211000
#
# Disc length: 2923 seconds
#
# Revision: 0
# Processed by: cddbd v1.5.2PL0 Copyright (c) Steve Scherf et al.
# Submitted via: CDex 1.51
#
DISCID=a70b690d
DTITLE=Sidney's Blues - Sidney'y
DYEAR=1900
DGENRE=Jazz
TTITLE0=Dans les rues de Antibes (Bechet)
TTITLE1=Roses of Picardy (Wood/Handy)
TTITLE2=Down in Honky Tonk Town (Mc Carron/Smith)
TTITLE3=Blue Horizon (Bechet)
TTITLE4=St. Louis Blues (Handy)
TTITLE5=Nuages (Reinhardt)
TTITLE6=Blue Room (Nelson)
TTITLE7=Francis Blues (Bechet)
TTITLE8=I gotta Right to Sing the Blues (Wood/Tyron)
TTITLE9=When I Grow too Old to Dream (Hammerstein/Romberg)
TTITLE10=Black and Blue (Razaf/Waller)
TTITLE11=Where am I (Bechet)
TTITLE12=I Cover the Waterfront (Green)
EXTD=
EXTT0=
EXTT1=
EXTT2=
EXTT3=
EXTT4=
EXTT5=
EXTT6=
EXTT7=
EXTT8=
EXTT9=
EXTT10=
EXTT11=
EXTT12=
PLAYORDER=
